<svg id="Layer_1" data-name="Layer 1" xmlns="http://www.w3.org/2000/svg" xmlns:xlink="http://www.w3.org/1999/xlink" viewBox="0 0 72 23.11"><defs><style>.cls-1{fill:url(#linear-gradient);}.cls-2{fill:#202e39;}</style><linearGradient id="linear-gradient" x1="65.2" y1="24.53" x2="83.08" y2="19.74" gradientUnits="userSpaceOnUse"><stop offset="0" stop-color="#202e39"/><stop offset="0.04" stop-color="#1e323f"/><stop offset="0.1" stop-color="#1a3c4f"/><stop offset="0.16" stop-color="#134e6a"/><stop offset="0.23" stop-color="#096690"/><stop offset="0.28" stop-color="#007eb4"/><stop offset="0.34" stop-color="#0084bc"/><stop offset="0.43" stop-color="#0093d2"/><stop offset="0.48" stop-color="#009fe3"/><stop offset="0.51" stop-color="#18a6cd"/><stop offset="0.57" stop-color="#44b3a4"/><stop offset="0.63" stop-color="#69be81"/><stop offset="0.69" stop-color="#88c765"/><stop offset="0.76" stop-color="#a0ce4f"/><stop offset="0.83" stop-color="#b1d33f"/><stop offset="0.9" stop-color="#bbd636"/><stop offset="1" stop-color="#bed733"/></linearGradient></defs><title>int_vsat_TM_rgb_grd</title><path class="cls-1" d="M70.71,19a1.82,1.82,0,0,0-1.25,1.25L68.09,25l-.35-1.21a1.33,1.33,0,1,0-2.55.73L66,27.3a1.33,1.33,0,0,0,2.55,0l1.34-4.67,1.24,4.31a1.82,1.82,0,0,0,3.49,0l2.6-9.06,2.45,8.55a2.52,2.52,0,1,0,4.84-1.39L81.43,14.41a2.52,2.52,0,0,0-4.85,0h0l-2.65,9.23-1-3.44A1.82,1.82,0,0,0,70.71,19Z" transform="translate(-12.58 -12.58)"/><path class="cls-2" d="M63.66,26.81v.06c0,.69-.15,1.25-1.28,1.25s-1.28-.56-1.28-1.25v-.06c0-.69.15-1.25,1.28-1.25S63.66,26.11,63.66,26.81ZM60.3,35.55a2.89,2.89,0,0,1-1.94-.62,3.31,3.31,0,0,1-.89-2.64V28l0,0H56.2c-.65,0-.81-.12-.81-1.18s.16-1.18.81-1.18h1.25l0,0v-1.7c0-.78.14-1,1.42-1s1.42.19,1.42,1v8c0,.83.08,1,.36,1.19s1.14.07,1.81,0c.52-.08.54.13.68.91s.12,1.05-.39,1.18A10.39,10.39,0,0,1,60.3,35.55ZM47.84,28.1c-.51.1-.55-.11-.71-.88S47,26.16,47.47,26a11.6,11.6,0,0,1,3.38-.47,3.17,3.17,0,0,1,3.2,1.92,7.3,7.3,0,0,1,.33,3v3.59a1,1,0,0,1-.67,1,7.94,7.94,0,0,1-3.11.6c-2.39,0-4.27-.71-4.27-3.07s1.63-3.09,3.93-3.09a14.5,14.5,0,0,1,1.54.07,0,0,0,0,0,0,0V29c0-.87-.43-1.39-1.58-1.39A13,13,0,0,0,47.84,28.1Zm2.83,5.62a3.39,3.39,0,0,0,1.13-.19.07.07,0,0,0,0-.07V31.6a.07.07,0,0,0-.06-.07,6.87,6.87,0,0,0-1.2-.09c-.95,0-1.59.24-1.59,1.15S49.58,33.72,50.67,33.72Zm-6.43,1.17a4.25,4.25,0,0,1-2.58.81,10.49,10.49,0,0,1-3.08-.54c-.52-.17-.52-.31-.4-1.1s.2-1.12.68-1a14.74,14.74,0,0,0,2.62.47c.55,0,1-.22,1.08-.81s-.48-1-1.53-1.25c-1.21-.34-2.8-.92-2.86-3,0-1.64,1.23-2.94,3.33-2.94a8.26,8.26,0,0,1,2.87.47c.5.14.51.42.34,1.19s-.2,1-.71.88a8.2,8.2,0,0,0-2.27-.38c-.42,0-.89.23-.89.73s.64.74,1.31,1a7.23,7.23,0,0,1,2.21,1.07,2.39,2.39,0,0,1,.88,1.95A2.89,2.89,0,0,1,44.25,34.89ZM30,28.1c-.51.1-.55-.11-.71-.88s-.16-1.06.35-1.19A11.6,11.6,0,0,1,33,25.55a3.17,3.17,0,0,1,3.2,1.92,7.3,7.3,0,0,1,.33,3v3.59a1,1,0,0,1-.67,1,7.94,7.94,0,0,1-3.11.6c-2.39,0-4.27-.71-4.27-3.07s1.63-3.09,3.93-3.09A14.49,14.49,0,0,1,34,29.6a0,0,0,0,0,0,0V29c0-.87-.43-1.39-1.58-1.39A13,13,0,0,0,30,28.1Zm2.83,5.62a3.39,3.39,0,0,0,1.13-.19.07.07,0,0,0,0-.07V31.6a.07.07,0,0,0-.06-.07,6.87,6.87,0,0,0-1.2-.09c-.95,0-1.59.24-1.59,1.15S31.73,33.72,32.82,33.72Zm-7.41,1.83c-1.28,0-1.42-.19-1.42-1V26.64c0-.78.14-1,1.42-1s1.42.19,1.42,1v7.94C26.83,35.36,26.69,35.55,25.41,35.55ZM21.62,23c-1.19,0-1.37.19-1.56,1l-2.31,8.62-2.31-8.62c-.2-.78-.37-1-1.56-1s-1.43.19-1.24,1l3.05,10.64c.26.78.77,1,2.05,1s1.79-.19,2.05-1l3.05-10.64C23,23.16,22.8,23,21.62,23Z" transform="translate(-12.58 -12.58)"/><path class="cls-2" d="M64.41,35.4v-.91h-.35v-.19H65v.19h-.36v.91Zm.74,0V34.29h.26l.17.41.1.28h0l.1-.28.16-.41h.26V35.4H66v-.49l0-.38h0l-.26.69H65.6l-.26-.69h0l0,.38v.49Z" transform="translate(-12.58 -12.58)"/></svg>