<svg id="Layer_1" data-name="Layer 1" xmlns="http://www.w3.org/2000/svg" viewBox="0 0 72 23.11"><defs><style>.cls-1{fill:#fff;}</style></defs><title>int_vsat_TM_rgb_wht</title><path class="cls-1" d="M70.71,19A1.82,1.82,0,0,1,73,20.23l1,3.44,2.65-9.23h0a2.52,2.52,0,0,1,4.85,0l3.05,10.65a2.52,2.52,0,1,1-4.84,1.39l-2.45-8.55-2.6,9.06a1.82,1.82,0,0,1-3.49,0l-1.24-4.31L68.53,27.3a1.33,1.33,0,0,1-2.55,0l-.79-2.75a1.33,1.33,0,1,1,2.55-.73L68.09,25l1.38-4.8A1.82,1.82,0,0,1,70.71,19Zm-8.33,6.57c-1.13,0-1.28.56-1.28,1.25v.06c0,.69.15,1.25,1.28,1.25s1.28-.56,1.28-1.25v-.06C63.66,26.11,63.51,25.55,62.38,25.55Zm.39,9.65c.5-.12.53-.4.39-1.18s-.16-1-.68-.91c-.67.1-1.44.28-1.81,0s-.36-.35-.36-1.19v-8c0-.78-.14-1-1.42-1s-1.42.19-1.42,1v1.7l0,0H56.2c-.65,0-.81.12-.81,1.18S55.55,28,56.2,28h1.25l0,0v4.26a3.31,3.31,0,0,0,.89,2.64,2.89,2.89,0,0,0,1.94.62A10.39,10.39,0,0,0,62.77,35.21Zm-12.5-7.55c1.15,0,1.58.51,1.58,1.39v.53a0,0,0,0,1,0,0,14.5,14.5,0,0,0-1.54-.07c-2.3,0-3.93.74-3.93,3.09s1.89,3.07,4.27,3.07a7.94,7.94,0,0,0,3.11-.6,1,1,0,0,0,.67-1V30.52a7.3,7.3,0,0,0-.33-3,3.17,3.17,0,0,0-3.2-1.92,11.6,11.6,0,0,0-3.38.47c-.5.13-.51.42-.34,1.19s.2,1,.71.88A13,13,0,0,1,50.27,27.65ZM49,32.59c0-.91.64-1.14,1.59-1.15a6.87,6.87,0,0,1,1.2.09.07.07,0,0,1,.06.07v1.86a.07.07,0,0,1,0,.07,3.39,3.39,0,0,1-1.13.19C49.58,33.72,49,33.39,49,32.59Zm-3.76-.14a2.39,2.39,0,0,0-.88-1.95,7.23,7.23,0,0,0-2.21-1.07c-.67-.25-1.31-.39-1.31-1s.47-.71.89-.73a8.2,8.2,0,0,1,2.27.38c.51.11.55-.11.71-.88s.16-1-.34-1.19a8.26,8.26,0,0,0-2.87-.47c-2.1,0-3.38,1.3-3.33,2.94.06,2,1.65,2.62,2.86,3,1.06.29,1.57.62,1.53,1.25s-.53.81-1.08.81A14.74,14.74,0,0,1,38.86,33c-.48-.11-.56.21-.68,1s-.12.93.4,1.1a10.49,10.49,0,0,0,3.08.54,4.25,4.25,0,0,0,2.58-.81A2.89,2.89,0,0,0,45.24,32.45Zm-12.82-4.8c1.15,0,1.58.51,1.58,1.39v.53a0,0,0,0,1,0,0,14.49,14.49,0,0,0-1.54-.07c-2.3,0-3.93.74-3.93,3.09s1.89,3.07,4.27,3.07a7.94,7.94,0,0,0,3.11-.6,1,1,0,0,0,.67-1V30.52a7.3,7.3,0,0,0-.33-3A3.17,3.17,0,0,0,33,25.55a11.6,11.6,0,0,0-3.38.47c-.5.13-.51.42-.35,1.19s.2,1,.71.88A13,13,0,0,1,32.42,27.65Zm-1.28,4.94c0-.91.64-1.14,1.59-1.15a6.87,6.87,0,0,1,1.2.09.07.07,0,0,1,.06.07v1.86a.07.07,0,0,1,0,.07,3.39,3.39,0,0,1-1.13.19C31.73,33.72,31.14,33.39,31.14,32.59Zm-4.31,2V26.64c0-.78-.14-1-1.42-1s-1.42.19-1.42,1v7.94c0,.78.14,1,1.42,1S26.83,35.36,26.83,34.57Zm-4-10.64L19.8,34.57c-.26.78-.77,1-2.05,1s-1.79-.19-2.05-1L12.64,23.93c-.19-.77,0-1,1.24-1s1.37.19,1.56,1l2.31,8.62,2.31-8.62c.2-.78.37-1,1.56-1S23,23.16,22.85,23.93Z" transform="translate(-12.58 -12.58)"/><path class="cls-1" d="M64.41,35.4v-.91h-.35v-.19H65v.19h-.36v.91Zm.74,0V34.29h.26l.17.41.1.28h0l.1-.28.16-.41h.26V35.4H66v-.49l0-.38h0l-.26.69H65.6l-.26-.69h0l0,.38v.49Z" transform="translate(-12.58 -12.58)"/></svg>